<svg width="100" height="100" viewBox="0 0 100 100" fill="none" xmlns="http://www.w3.org/2000/svg">
  <defs>
    <linearGradient id="bg" x1="0" y1="0" x2="100" y2="100" gradientUnits="userSpaceOnUse">
      <stop offset="0" stop-color="#1e1b4b"/>
      <stop offset="1" stop-color="#0f0a26"/>
    </linearGradient>
    <radialGradient id="sat" cx="50" cy="50" r="48" gradientUnits="userSpaceOnUse">
      <stop offset="0" stop-color="#ffffff" stop-opacity="0.95"/>
      <stop offset="0.45" stop-color="#ffffff" stop-opacity="0"/>
    </radialGradient>
    <radialGradient id="gloss" cx="32" cy="26" r="62" gradientUnits="userSpaceOnUse">
      <stop offset="0" stop-color="#ffffff" stop-opacity="0.45"/>
      <stop offset="0.6" stop-color="#ffffff" stop-opacity="0"/>
    </radialGradient>
    <clipPath id="round"><rect x="2" y="2" width="96" height="96" rx="22"/></clipPath>
  </defs>

  <!-- Squircle background (almost full-bleed) -->
  <g clip-path="url(#round)">
    <rect x="2" y="2" width="96" height="96" fill="url(#bg)"/>

    <!-- Color wheel (12 vivid segments), enlarged to fill the tile -->
    <g transform="translate(50 50) scale(0.96) translate(-50 -50)">
      <path d="M50,50 L90.00,50.00 A40 40 0 0 1 84.64,70.00 Z" fill="#ff2d55"/>
      <path d="M50,50 L84.64,70.00 A40 40 0 0 1 70.00,84.64 Z" fill="#ff8a00"/>
      <path d="M50,50 L70.00,84.64 A40 40 0 0 1 50.00,90.00 Z" fill="#ffd60a"/>
      <path d="M50,50 L50.00,90.00 A40 40 0 0 1 30.00,84.64 Z" fill="#aaf000"/>
      <path d="M50,50 L30.00,84.64 A40 40 0 0 1 15.36,70.00 Z" fill="#34d399"/>
      <path d="M50,50 L15.36,70.00 A40 40 0 0 1 10.00,50.00 Z" fill="#00e0c6"/>
      <path d="M50,50 L10.00,50.00 A40 40 0 0 1 15.36,30.00 Z" fill="#22d3ee"/>
      <path d="M50,50 L15.36,30.00 A40 40 0 0 1 30.00,15.36 Z" fill="#3b82f6"/>
      <path d="M50,50 L30.00,15.36 A40 40 0 0 1 50.00,10.00 Z" fill="#6366f1"/>
      <path d="M50,50 L50.00,10.00 A40 40 0 0 1 70.00,15.36 Z" fill="#a855f7"/>
      <path d="M50,50 L70.00,15.36 A40 40 0 0 1 84.64,30.00 Z" fill="#ec4899"/>
      <path d="M50,50 L84.64,30.00 A40 40 0 0 1 90.00,50.00 Z" fill="#fb5c8a"/>
      <!-- Saturation fade toward white center -->
      <circle cx="50" cy="50" r="40" fill="url(#sat)"/>
    </g>

    <!-- Picker handle in the center -->
    <circle cx="50" cy="50" r="10" fill="#ffffff" stroke="#0f0a26" stroke-opacity="0.25" stroke-width="2.5"/>

    <!-- Glossy top-light for that shiny, playful look -->
    <rect x="2" y="2" width="96" height="96" fill="url(#gloss)"/>
  </g>

  <!-- Sparkle for personality -->
  <path d="M80 14 C81.2 21.2 82.4 22.4 89.6 23.6 C82.4 24.8 81.2 26 80 33.2 C78.8 26 77.6 24.8 70.4 23.6 C77.6 22.4 78.8 21.2 80 14 Z" fill="#ffffff" fill-opacity="0.92"/>
</svg>
